<?xml version="1.0" encoding="UTF-8"?>
<svg id="Layer_1" data-name="Layer 1" xmlns="http://www.w3.org/2000/svg" xmlns:xlink="http://www.w3.org/1999/xlink" viewBox="0 0 400 123">
  <defs>
    <style>
      .cls-1 {
        fill: none;
      }

      .cls-2 {
        clip-path: url(#clippath);
      }
    </style>
    <clipPath id="clippath">
      <rect class="cls-1" x="50.8" y="-5.01" width="331.67" height="72.76"/>
    </clipPath>
  </defs>
  <path d="M50.8.48S22.54,46.09,6.09,55.07c0,0-5.23,11.4-6.09,22.24l10.38,15.62,19.45,5.69,7.85-4.11v22.43s-7.85,4.49-7.85,4.49h20.97V.48Z"/>
  <g>
    <path d="M64.96,67.48v10.53h-14.5v43.42h-13.28v-43.42h-14.5v-10.53h42.28Z"/>
    <path d="M112.02,84.57c0,3.62-1.01,6.78-3.04,9.48-2.03,2.7-4.85,4.75-8.46,6.16l17.74,21.22h-16.36l-14.82-18.71h-2.43v18.71h-13.28v-53.95h17.17c3.35,0,6.45.35,9.31,1.05,2.86.7,5.35,1.76,7.45,3.16,2.11,1.41,3.75,3.17,4.94,5.31,1.19,2.13,1.78,4.66,1.78,7.57ZM99.22,84.81c0-2.43-.95-4.22-2.83-5.39-1.89-1.16-4.54-1.74-7.94-1.74h-3.81v15.15h3.24c3.56,0,6.34-.7,8.34-2.11,2-1.4,3-3.37,3-5.91Z"/>
    <path d="M136.81,121.43h-13.28v-53.95h13.28v53.95Z"/>
    <path d="M174.23,66.51c2.81,0,5.63.27,8.46.8s5.28,1.31,7.33,2.33l-1.94,9.74c-1.62-.65-3.47-1.2-5.55-1.66-2.08-.46-4.15-.69-6.2-.69-5.51,0-9.86,1.44-13.04,4.31-3.19,2.88-4.78,7.24-4.78,13.1s1.59,10.23,4.78,13.1c3.19,2.88,7.53,4.31,13.04,4.31,2.05,0,4.12-.23,6.2-.69,2.08-.46,3.93-1.01,5.55-1.66l1.94,9.74c-2.05,1.02-4.5,1.8-7.33,2.33s-5.66.8-8.46.8c-4.75,0-8.94-.7-12.56-2.11-3.62-1.4-6.64-3.35-9.07-5.83-2.43-2.48-4.27-5.43-5.51-8.83-1.24-3.4-1.86-7.13-1.86-11.18s.62-7.78,1.86-11.18c1.24-3.4,3.08-6.34,5.51-8.83,2.43-2.48,5.45-4.43,9.07-5.83,3.62-1.4,7.8-2.11,12.56-2.11Z"/>
    <path d="M198.53,121.43v-53.95h13.28v25.84l17.01-25.84h14.99l-18.22,26.65,19.52,27.3h-15.96l-17.33-26.41v26.41h-13.28Z"/>
    <path d="M285.76,105.31c0,2.38-.47,4.6-1.42,6.68-.95,2.08-2.31,3.89-4.09,5.43-1.78,1.54-3.94,2.75-6.48,3.65-2.54.89-5.43,1.34-8.67,1.34-2.97,0-5.94-.32-8.91-.97-2.97-.65-5.72-1.59-8.26-2.83l2.67-10.12c1.89.92,4.02,1.71,6.4,2.39,2.38.68,4.94,1.01,7.69,1.01,2.27,0,4.13-.42,5.59-1.25,1.46-.84,2.19-2.2,2.19-4.09,0-1.35-.64-2.58-1.9-3.69-1.27-1.11-3.58-2.28-6.93-3.52-5.29-2-9.15-4.28-11.58-6.84-2.43-2.56-3.64-5.84-3.64-9.84,0-5.24,1.71-9.23,5.14-11.99,3.43-2.75,8.17-4.13,14.21-4.13,3.08,0,6.02.34,8.83,1.01,2.81.68,5.18,1.55,7.13,2.63l-2.27,9.96c-1.89-.92-3.96-1.66-6.2-2.23-2.24-.57-4.55-.85-6.93-.85-2,0-3.6.34-4.82,1.01-1.21.68-1.82,1.82-1.82,3.44,0,.76.11,1.41.32,1.94.22.54.61,1.05,1.17,1.54s1.36.97,2.39,1.46c1.03.49,2.32,1.05,3.89,1.7,2.27.92,4.4,1.89,6.4,2.92,2,1.03,3.73,2.21,5.18,3.56,1.46,1.35,2.6,2.89,3.44,4.62.84,1.73,1.26,3.75,1.26,6.08Z"/>
    <path d="M292.33,114.78c0-1.94.62-3.64,1.86-5.1,1.24-1.46,3.05-2.19,5.43-2.19s4.18.73,5.43,2.19,1.86,3.16,1.86,5.1-.62,3.65-1.86,5.1-3.05,2.19-5.43,2.19-4.19-.73-5.43-2.19c-1.24-1.46-1.86-3.16-1.86-5.1Z"/>
    <path d="M353.64,121.43h-12.39v-4.98c-1.24,1.77-2.85,3.17-4.82,4.22-1.97,1.04-4.33,1.57-7.09,1.57-2.21,0-4.29-.47-6.24-1.42-1.94-.94-3.63-2.29-5.06-4.05-1.43-1.75-2.55-3.87-3.36-6.36-.81-2.48-1.22-5.26-1.22-8.34,0-3.46.55-6.51,1.66-9.15,1.11-2.64,2.59-4.86,4.46-6.64,1.86-1.78,4.04-3.12,6.52-4.01,2.48-.89,5.13-1.34,7.94-1.34,1.4,0,2.65.09,3.73.28,1.08.19,2.05.42,2.92.69v-17.66h12.96v57.19ZM334.04,112.35c2.75,0,4.97-.92,6.64-2.76v-18.29c-1.19-.43-2.73-.65-4.62-.65-3.24,0-5.66,1-7.25,3.01-1.59,2.01-2.39,4.74-2.39,8.21,0,3.09.61,5.61,1.82,7.56,1.21,1.95,3.14,2.93,5.79,2.93Z"/>
    <path d="M380.94,80.93c5.18,0,9.29,1.53,12.31,4.58,3.02,3.05,4.54,7.28,4.54,12.68,0,2.05-.24,4.24-.73,6.56h-23c.11,2.43.93,4.39,2.47,5.87,1.54,1.49,3.9,2.23,7.09,2.23,1.94,0,3.98-.17,6.12-.53,2.13-.35,3.98-.88,5.55-1.58l1.62,8.34c-2.05,1.03-4.36,1.81-6.92,2.35-2.57.54-5.22.81-7.98.81-3.46,0-6.51-.5-9.15-1.5-2.65-1-4.86-2.39-6.64-4.17-1.78-1.78-3.13-3.91-4.05-6.4-.92-2.48-1.38-5.24-1.38-8.26,0-3.24.47-6.16,1.42-8.75.94-2.59,2.29-4.79,4.05-6.6,1.75-1.81,3.87-3.2,6.36-4.17,2.48-.97,5.27-1.46,8.34-1.46ZM380.54,89.19c-2.05,0-3.63.66-4.74,1.98-1.11,1.32-1.66,3.15-1.66,5.47h11.5c.11-.43.16-.89.16-1.38,0-1.73-.46-3.17-1.38-4.33-.92-1.16-2.21-1.74-3.89-1.74Z"/>
  </g>
  <g class="cls-2">
    <g>
      <path d="M36.7,61.93V7.98h13.28v25.84l17.01-25.84h14.98l-18.23,26.65,19.52,27.3h-15.96l-17.33-26.41v26.41h-13.28Z"/>
      <path d="M122.72,51.48h-20.66l-3.32,10.45h-13.69L105.14,7.98h14.58l20.09,53.95h-13.69l-3.4-10.45ZM105.46,40.95h13.85l-6.88-22.76-6.97,22.76Z"/>
      <path d="M186.71,25.07c0,3.62-1.01,6.78-3.04,9.48-2.03,2.7-4.85,4.75-8.46,6.16l17.74,21.22h-16.36l-14.82-18.71h-2.43v18.71h-13.28V7.98h17.17c3.35,0,6.45.35,9.32,1.05,2.86.7,5.35,1.75,7.45,3.16,2.11,1.41,3.75,3.17,4.94,5.31,1.19,2.13,1.78,4.66,1.78,7.57ZM173.91,25.31c0-2.43-.95-4.22-2.83-5.39-1.89-1.16-4.54-1.74-7.94-1.74h-3.81v15.15h3.24c3.56,0,6.34-.7,8.34-2.11,2-1.4,3-3.37,3-5.91Z"/>
      <path d="M234.74,7.98v10.53h-14.5v43.42h-13.28V18.51h-14.5V7.98h42.28Z"/>
      <path d="M241.14,7.98h33.62v10.53h-20.33v10.85h19.36v10.53h-19.36v11.5h20.57v10.53h-33.86V7.98Z"/>
      <path d="M319.22,61.93l-22.27-32.16v32.16h-12.8V7.98h12.8l22.27,32.16V7.98h12.8v53.95h-12.8Z"/>
      <path d="M341.33,46.13v-10.37h22.19v10.37h-22.19Z"/>
    </g>
  </g>
</svg>